<svg xmlns:xlink="http://www.w3.org/1999/xlink" xmlns="http://www.w3.org/2000/svg" version="1.1" viewBox="0 0 1024 1024" height="1024px" width="1024px">
    <title>暂无数据</title>
    <defs>
        <radialGradient id="radialGradient-1" gradientTransform="translate(0.500000,0.024678),scale(0.663291,1.000000),rotate(91.510151),translate(-0.500000,-0.024678)" r="70.7270259%" fy="2.46780057%" fx="50.0000026%" cy="2.46780057%" cx="50.0000026%">
            <stop offset="0%" stop-opacity="0.15156181" stop-color="#0052D9"></stop>
            <stop offset="100%" stop-opacity="0" stop-color="#0052D9"></stop>
        </radialGradient>
        <linearGradient id="linearGradient-2" y2="100%" x2="50%" y1="0%" x1="50%">
            <stop offset="0%" stop-color="#72A0E8"></stop>
            <stop offset="99.39955%" stop-color="#3981F7"></stop>
        </linearGradient>
        <linearGradient id="linearGradient-3" y2="100%" x2="50%" y1="0%" x1="50%">
            <stop offset="1.27618965%" stop-color="#B7D2FF"></stop>
            <stop offset="100%" stop-color="#93BBFF"></stop>
        </linearGradient>
        <linearGradient id="linearGradient-4" y2="100%" x2="50%" y1="0%" x1="50%">
            <stop offset="0%" stop-color="#72A0E8"></stop>
            <stop offset="99.39955%" stop-color="#3981F7"></stop>
        </linearGradient>
        <linearGradient id="linearGradient-5" y2="100%" x2="50%" y1="0%" x1="50%">
            <stop offset="1.27618965%" stop-color="#B7D2FF"></stop>
            <stop offset="100%" stop-color="#93BBFF"></stop>
        </linearGradient>
        <linearGradient id="linearGradient-6" y2="100%" x2="50%" y1="0%" x1="50%">
            <stop offset="0%" stop-color="#72A0E8"></stop>
            <stop offset="99.39955%" stop-color="#3981F7"></stop>
        </linearGradient>
        <linearGradient id="linearGradient-7" y2="100%" x2="50%" y1="0%" x1="50%">
            <stop offset="1.27618965%" stop-color="#B7D2FF"></stop>
            <stop offset="100%" stop-color="#93BBFF"></stop>
        </linearGradient>
        <linearGradient id="linearGradient-8" y2="112.401832%" x2="4.31707194%" y1="11.5327565%" x1="67.9399454%">
            <stop offset="0%" stop-color="#5E9BFF"></stop>
            <stop offset="100%" stop-color="#E2EDFF"></stop>
        </linearGradient>
        <linearGradient id="linearGradient-9" y2="0%" x2="1.04709141%" y1="81.915%" x1="57.20391%">
            <stop offset="0%" stop-color="#6783E7"></stop>
            <stop offset="100%" stop-color="#496AE0"></stop>
        </linearGradient>
        <linearGradient id="linearGradient-10" y2="100%" x2="45.1325416%" y1="12.8759666%" x1="53.1435447%">
            <stop offset="0%" stop-color="#72A7FE"></stop>
            <stop offset="100%" stop-color="#A9CAFF"></stop>
        </linearGradient>
        <polygon points="97 271 151 242.276596 151 136 97 164.723404" id="path-11"></polygon>
        <linearGradient id="linearGradient-12" y2="0%" x2="1.04709141%" y1="81.915%" x1="57.20391%">
            <stop offset="0%" stop-color="#7998E9"></stop>
            <stop offset="100%" stop-color="#496AE0"></stop>
        </linearGradient>
        <linearGradient id="linearGradient-13" y2="100%" x2="45.1325416%" y1="12.8759666%" x1="53.1435447%">
            <stop offset="0%" stop-color="#5E9BFF"></stop>
            <stop offset="100%" stop-color="#A9CAFF"></stop>
        </linearGradient>
        <polygon points="97 149 151 120.276596 151 14 97 42.7234043" id="path-14"></polygon>
        <linearGradient id="linearGradient-15" y2="95.63%" x2="29.6718152%" y1="0%" x1="1.04709141%">
            <stop offset="0%" stop-color="#496AE0"></stop>
            <stop offset="100%" stop-color="#839EFF"></stop>
        </linearGradient>
        <linearGradient id="linearGradient-16" y2="100%" x2="45.1325416%" y1="12.8759666%" x1="53.1435447%">
            <stop offset="0%" stop-color="#85B3FF"></stop>
            <stop offset="100%" stop-color="#A9CAFF"></stop>
        </linearGradient>
        <polygon points="211 292 265 263.276596 265 157 211 185.723404" id="path-17"></polygon>
        <linearGradient id="linearGradient-18" y2="100%" x2="45.1325416%" y1="12.8759666%" x1="53.1435447%">
            <stop offset="0%" stop-color="#78AAFD"></stop>
            <stop offset="100%" stop-color="#A9CAFF"></stop>
        </linearGradient>
        <polygon points="211 169 265 140.276596 265 34 211 62.7234043" id="path-19"></polygon>
        <radialGradient id="radialGradient-20" r="66.169447%" fy="50%" fx="24.042307%" cy="50%" cx="24.042307%">
            <stop offset="0%" stop-color="#F2F7FF"></stop>
            <stop offset="100%" stop-color="#99C0FF"></stop>
        </radialGradient>
    </defs>
    <g fill-rule="evenodd" fill="none" stroke-width="1" stroke="none" id="暂无数据">
        <g transform="translate(104.000000, 268.990000)" id="编组">
            <g transform="translate(0.000000, 189.000000)">
                <polygon points="841.26 279 841.03 288.24 840.34 297.42 839.21 306.54 837.63 315.62 835.6 324.67 833.11 333.68 829.59 344.26 825.46 354.75 820.71 365.15 815.31 375.49 809.24 385.77 802.77 395.6 795.69 405.31 787.98 414.91 779.62 424.4 770.59 433.79 761.34 442.63 751.48 451.29 741 459.79 729.87 468.12 718.06 476.28 706.13 483.89 693.77 491.17 680.97 498.14 667.72 504.8 654 511.12 640.22 516.96 626.1 522.45 611.63 527.58 596.8 532.35 581.6 536.76 566.4 540.71 550.96 544.27 535.26 547.44 519.3 550.21 503.07 552.59 486.89 554.52 470.55 556.03 454.07 557.12 437.43 557.77 420.63 558 403.83 557.77 387.19 557.12 370.71 556.03 354.37 554.52 338.19 552.59 321.96 550.21 306 547.44 290.3 544.27 274.86 540.71 259.66 536.76 244.46 532.35 229.63 527.58 215.16 522.45 201.04 516.96 187.26 511.12 173.54 504.8 160.29 498.14 147.49 491.17 135.13 483.89 123.2 476.28 111.39 468.12 100.26 459.79 89.78 451.29 79.92 442.63 70.67 433.79 61.64 424.4 53.28 414.91 45.57 405.31 38.49 395.6 32.02 385.77 25.95 375.49 20.55 365.15 15.8 354.75 11.67 344.26 8.15 333.68 5.66 324.67 3.63 315.62 2.05 306.54 0.92 297.42 0.23 288.24 0 279 0.23 269.76 0.92 260.58 2.05 251.46 3.63 242.38 5.66 233.33 8.15 224.32 11.67 213.74 15.8 203.25 20.55 192.85 25.95 182.51 32.02 172.23 38.49 162.4 45.57 152.69 53.28 143.09 61.64 133.6 70.67 124.21 79.92 115.37 89.78 106.71 100.26 98.21 111.39 89.88 123.2 81.72 135.13 74.11 147.49 66.83 160.29 59.86 173.54 53.2 187.26 46.88 201.04 41.04 215.16 35.55 229.63 30.42 244.46 25.65 259.66 21.24 274.86 17.29 290.3 13.73 306 10.56 321.96 7.79 338.19 5.41 354.37 3.48 370.71 1.97 387.19 0.88 403.83 0.23 420.63 0 437.43 0.23 454.07 0.88 470.55 1.97 486.89 3.48 503.07 5.41 519.3 7.79 535.26 10.56 550.96 13.73 566.4 17.29 581.6 21.24 596.8 25.65 611.63 30.42 626.1 35.55 640.22 41.04 654 46.88 667.72 53.2 680.97 59.86 693.77 66.83 706.13 74.11 718.06 81.72 729.87 89.88 741 98.21 751.48 106.71 761.34 115.37 770.59 124.21 779.62 133.6 787.98 143.09 795.69 152.69 802.77 162.4 809.24 172.23 815.31 182.51 820.71 192.85 825.46 203.25 829.59 213.74 833.11 224.32 835.6 233.33 837.63 242.38 839.21 251.46 840.34 260.58 841.03 269.76" fill-rule="nonzero" fill="url(#radialGradient-1)" id="椭圆形"></polygon>
                <g id="路径" transform="translate(117.630000, 67.000000)">
                    <polygon points="20.77 30 31.15 30 31.15 84.67 30.95 86.12 30.45 87.36 29.63 88.44 28.58 89.28 27.37 89.8 25.96 90 25.96 90 24.55 89.8 23.35 89.28 22.29 88.44 21.48 87.36 20.97 86.12 20.77 84.67" fill-rule="nonzero" fill="#3F78D6"></polygon>
                    <polygon points="20.77 0 45 63.33 20.77 80" fill="url(#linearGradient-2)"></polygon>
                    <polygon points="20.77 0 0 70 20.77 80" fill="url(#linearGradient-3)"></polygon>
                </g>
                <g id="路径" transform="translate(699.630000, 32.000000)">
                    <polygon points="16 23 24 23 24 65.82 23.68 67.46 22.83 68.78 21.56 69.67 20 70 20 70 18.44 69.67 17.17 68.78 16.32 67.46 16 65.82" fill-rule="nonzero" fill="#3F78D6"></polygon>
                    <polygon points="16 0 35 49.08 16 62" fill="url(#linearGradient-4)"></polygon>
                    <polygon points="16 0 0 54.25 16 62" fill="url(#linearGradient-5)"></polygon>
                </g>
                <g id="路径" transform="translate(173.630000, 0.000000)">
                    <polygon points="16 23 24 23 24 64 23.68 65.57 22.83 66.83 21.57 67.68 20 68 20 68 18.43 67.68 17.17 66.83 16.32 65.57 16 64" fill-rule="nonzero" fill="#3F78D6"></polygon>
                    <polygon points="16 0 34 47.5 16 60" fill="url(#linearGradient-6)"></polygon>
                    <polygon points="16 0 0 52.5 16 60" fill="url(#linearGradient-7)"></polygon>
                </g>
            </g>
            <g id="路径" transform="translate(297.000000, 16.010000)">
                <polygon points="0 152 0 257.714286 97 272 97 166.285714" fill="#7691F1"></polygon>
                <polygon points="0 152 0 257.714286 97 272 97 166.285714" fill="url(#linearGradient-8)"></polygon>
                <polygon points="97 271 151 242.276596 151 136 97 164.723404" fill="#4F6FE1"></polygon>
                <g fill-rule="nonzero">
                    <use xlink:href="#path-11" fill="url(#linearGradient-9)"></use>
                    <use xlink:href="#path-11" fill="url(#linearGradient-10)"></use>
                </g>
                <polygon points="97.509434 166 152 137.333333 54.490566 123 0 151.666667" fill="#4F6FE1"></polygon>
                <polygon points="97.509434 166 152 137.333333 54.490566 123 0 151.666667" fill-rule="nonzero" fill="#5C96F6"></polygon>
                <polygon points="0 29 0 134.714286 97 149 97 43.2857143" fill="#7691F1"></polygon>
                <polygon points="0 29 0 134.714286 97 149 97 43.2857143" fill="url(#linearGradient-8)"></polygon>
                <polygon points="97 149 151 120.276596 151 14 97 42.7234043" fill="#4F6FE1"></polygon>
                <g fill-rule="nonzero">
                    <use xlink:href="#path-14" fill="url(#linearGradient-12)"></use>
                    <use xlink:href="#path-14" fill="url(#linearGradient-13)"></use>
                </g>
                <polygon points="97.509434 43 152 14.3333333 54.490566 0 0 28.6666667" fill="#4F6FE1"></polygon>
                <polygon points="97.509434 43 152 14.3333333 54.490566 0 0 28.6666667" fill-rule="nonzero" fill="#CEE0FF"></polygon>
                <polygon points="115 172 115 277.714286 212 292 212 186.285714" fill="#7691F1"></polygon>
                <polygon points="115 172 115 277.714286 212 292 212 186.285714" fill="url(#linearGradient-8)"></polygon>
                <polygon points="211 292 265 263.276596 265 157 211 185.723404" fill="#4F6FE1"></polygon>
                <g fill-rule="nonzero">
                    <use xlink:href="#path-17" fill="url(#linearGradient-15)"></use>
                    <use xlink:href="#path-17" fill="url(#linearGradient-16)"></use>
                </g>
                <polygon points="211.509434 186 266 157.333333 168.490566 143 114 171.666667" fill="#4F6FE1"></polygon>
                <polygon points="211.509434 186 266 157.333333 168.490566 143 114 171.666667" fill-rule="nonzero" fill="#5C96F6"></polygon>
                <polygon points="115 48 115 153.714286 212 168 212 62.2857143" fill="#7691F1"></polygon>
                <polygon points="115 48 115 153.714286 212 168 212 62.2857143" fill="url(#linearGradient-8)"></polygon>
                <polygon points="211 169 265 140.276596 265 34 211 62.7234043" fill="#4F6FE1"></polygon>
                <g fill-rule="nonzero">
                    <use xlink:href="#path-19" fill="url(#linearGradient-15)"></use>
                    <use xlink:href="#path-19" fill="url(#linearGradient-18)"></use>
                </g>
                <polygon points="211.509434 63 266 34.3333333 168.490566 20 114 48.6666667" fill="#4F6FE1"></polygon>
                <polygon points="211.509434 63 266 34.3333333 168.490566 20 114 48.6666667" fill-rule="nonzero" fill="#CEE0FF"></polygon>
            </g>
            <polygon points="666.63 35.5 666.29 40.38 665.36 44.97 663.84 49.32 661.77 53.44 659.24 57.19 656.23 60.6 652.82 63.61 649.07 66.14 644.95 68.21 640.6 69.73 636.01 70.66 631.13 71 626.25 70.66 621.66 69.73 617.31 68.21 613.19 66.14 609.44 63.61 606.03 60.6 603.02 57.19 600.49 53.44 598.42 49.32 596.9 44.97 595.97 40.38 595.63 35.5 595.97 30.62 596.9 26.03 598.42 21.68 600.49 17.56 603.02 13.81 606.03 10.4 609.44 7.39 613.19 4.86 617.31 2.79 621.66 1.27 626.25 0.34 631.13 0 636.01 0.34 640.6 1.27 644.95 2.79 649.07 4.86 652.82 7.39 656.23 10.4 659.24 13.81 661.77 17.56 663.84 21.68 665.36 26.03 666.29 30.62" fill-rule="nonzero" fill="url(#radialGradient-20)" id="椭圆形"></polygon>
            <polygon points="264.63 181.5 264.3 185.06 263.41 188.32 261.97 191.34 260.03 194.08 257.71 196.4 254.97 198.34 251.95 199.78 248.69 200.67 245.13 201 241.57 200.67 238.31 199.78 235.29 198.34 232.55 196.4 230.23 194.08 228.29 191.34 226.85 188.32 225.96 185.06 225.63 181.5 225.96 177.94 226.85 174.68 228.29 171.66 230.23 168.92 232.55 166.6 235.29 164.66 238.31 163.22 241.57 162.33 245.13 162 248.69 162.33 251.95 163.22 254.97 164.66 257.71 166.6 260.03 168.92 261.97 171.66 263.41 174.68 264.3 177.94" fill-rule="nonzero" fill="url(#radialGradient-20)" fill-opacity="0.56253344" id="椭圆形备份"></polygon>
        </g>
    </g>
</svg>