<?xml version="1.0" standalone="no"?><!DOCTYPE svg PUBLIC "-//W3C//DTD SVG 1.1//EN" "http://www.w3.org/Graphics/SVG/1.1/DTD/svg11.dtd"><svg height="1024" node-id="1" sillyvg="true" template-height="1024" template-width="1024" version="1.1" viewBox="0 0 1024 1024" width="1024" xmlns="http://www.w3.org/2000/svg" xmlns:xlink="http://www.w3.org/1999/xlink"><defs node-id="85"><radialGradient cx="0.5" cy="0.024677966" fx="0.5" fy="0.024677966" gradientTransform="matrix(-0.0174804 0.99965267 -0.66305562 -0.02635425 0.52510309 -0.47449796)" gradientUnits="objectBoundingBox" id="radialGradient-1" node-id="5" r="0.70727026" spreadMethod="pad"><stop offset="0" stop-color="#0052d9" stop-opacity="0.15156181"></stop><stop offset="1" stop-color="#0052d9" stop-opacity="0"></stop></radialGradient><radialGradient cx="0.18925403" cy="0.2558875" fx="0.18925403" fy="0.2558875" gradientUnits="objectBoundingBox" id="radialGradient-2" node-id="8" r="0.67905444" spreadMethod="pad"><stop offset="0" stop-color="#fefdfb"></stop><stop offset="0.21116245" stop-color="#e6efff"></stop><stop offset="0.9955952" stop-color="#8cb7ff"></stop></radialGradient><radialGradient cx="0.24042307" cy="0.5" fx="0.24042307" fy="0.5" gradientTransform="matrix(0 0.655172 -1 0 0.740423 0.34248158)" gradientUnits="objectBoundingBox" id="radialGradient-3" node-id="12" r="1.0099547" spreadMethod="pad"><stop offset="0" stop-color="#ffffff"></stop><stop offset="0.98698545" stop-color="#9bc1ff"></stop></radialGradient><linearGradient gradientUnits="objectBoundingBox" id="linearGradient-4" node-id="15" spreadMethod="pad" x1="1" x2="0" y1="0.12487074" y2="0.75320107"><stop offset="0" stop-color="#ffffff"></stop><stop offset="1" stop-color="#a7c8ff"></stop></linearGradient><radialGradient cx="0.24042307" cy="0.5" fx="0.24042307" fy="0.5" gradientTransform="matrix(0 0.755556 -1 0 0.740423 0.31834696)" gradientUnits="objectBoundingBox" id="radialGradient-5" node-id="18" r="0.87577206" spreadMethod="pad"><stop offset="0" stop-color="#ffffff"></stop><stop offset="1" stop-color="#99c0ff"></stop></radialGradient><radialGradient cx="0.24042307" cy="0.5" fx="0.24042307" fy="0.5" gradientUnits="objectBoundingBox" id="radialGradient-6" node-id="21" r="0.66169447" spreadMethod="pad"><stop offset="0" stop-color="#ffffff"></stop><stop offset="1" stop-color="#9ec2ff"></stop></radialGradient><radialGradient cx="0.24042307" cy="0.5" fx="0.24042307" fy="0.5" gradientUnits="objectBoundingBox" id="radialGradient-7" node-id="24" r="0.66169447" spreadMethod="pad"><stop offset="0" stop-color="#ffffff"></stop><stop offset="1" stop-color="#a2c5ff"></stop></radialGradient><linearGradient gradientUnits="objectBoundingBox" id="linearGradient-8" node-id="27" spreadMethod="pad" x1="0.8829543" x2="0.061848886" y1="0.09235728" y2="0.8853717"><stop offset="0" stop-color="#a8c9ff"></stop><stop offset="0.51420605" stop-color="#ffffff"></stop><stop offset="1" stop-color="#a9c9ff"></stop></linearGradient><linearGradient gradientUnits="objectBoundingBox" id="linearGradient-9" node-id="31" spreadMethod="pad" x1="0.8829543" x2="0.061848886" y1="0.09002435" y2="0.8875771"><stop offset="0.016254986" stop-color="#a8c9ff"></stop><stop offset="0.51939976" stop-color="#ffffff"></stop><stop offset="0.9982893" stop-color="#a8c8ff"></stop></linearGradient><linearGradient gradientUnits="objectBoundingBox" id="linearGradient-10" node-id="35" spreadMethod="pad" x1="0.5" x2="0.5" y1="0" y2="1"><stop offset="0" stop-color="#72a0e8"></stop><stop offset="0.9939955" stop-color="#3981f7"></stop></linearGradient><linearGradient gradientUnits="objectBoundingBox" id="linearGradient-11" node-id="38" spreadMethod="pad" x1="0.5" x2="0.5" y1="0" y2="1"><stop offset="0.0127618965" stop-color="#b7d2ff"></stop><stop offset="1" stop-color="#93bbff"></stop></linearGradient><linearGradient gradientUnits="objectBoundingBox" id="linearGradient-12" node-id="41" spreadMethod="pad" x1="0.5" x2="0.5" y1="0" y2="1"><stop offset="0" stop-color="#72a0e8"></stop><stop offset="0.9939955" stop-color="#3981f7"></stop></linearGradient><linearGradient gradientUnits="objectBoundingBox" id="linearGradient-13" node-id="44" spreadMethod="pad" x1="0.5" x2="0.5" y1="0" y2="1"><stop offset="0.0127618965" stop-color="#b7d2ff"></stop><stop offset="1" stop-color="#93bbff"></stop></linearGradient><linearGradient gradientUnits="objectBoundingBox" id="linearGradient-14" node-id="47" spreadMethod="pad" x1="0.5" x2="0.5" y1="0" y2="1"><stop offset="0" stop-color="#72a0e8"></stop><stop offset="0.9939955" stop-color="#3981f7"></stop></linearGradient><linearGradient gradientUnits="objectBoundingBox" id="linearGradient-15" node-id="50" spreadMethod="pad" x1="0.5" x2="0.5" y1="0" y2="1"><stop offset="0.0127618965" stop-color="#b7d2ff"></stop><stop offset="1" stop-color="#93bbff"></stop></linearGradient><radialGradient cx="0.24042307" cy="0.5" fx="0.24042307" fy="0.5" gradientUnits="objectBoundingBox" id="radialGradient-16" node-id="53" r="0.66169447" spreadMethod="pad"><stop offset="0" stop-color="#f2f7ff"></stop><stop offset="1" stop-color="#99c0ff"></stop></radialGradient></defs><path d="M 932.63 719.00 C 932.63 793.00 888.32 863.96 809.43 916.28 C 730.55 968.61 623.56 998.00 512.00 998.00 C 400.44 998.00 293.45 968.61 214.57 916.28 C 135.68 863.96 91.37 793.00 91.37 719.00 C 91.37 645.00 135.68 574.04 214.57 521.72 C 293.45 469.39 400.44 440.00 512.00 440.00 C 623.56 440.00 730.55 469.39 809.43 521.72 C 888.32 574.04 932.63 645.00 932.63 719.00 Z" fill="url(#radialGradient-1)" fill-rule="nonzero" id="椭圆形" node-id="57" stroke="none" target-height="558" target-width="841.26" target-x="91.37" target-y="440"></path><g node-id="208"><path d="M 663.00 436.50 L 662.76 444.91 L 662.09 453.13 L 661.01 461.17 L 659.50 469.05 L 657.59 476.77 L 655.25 484.44 L 652.56 491.88 L 649.50 499.11 L 646.09 506.13 L 642.32 512.96 L 637.10 521.23 L 631.42 529.09 L 625.27 536.55 L 618.63 543.63 L 611.55 550.27 L 604.09 556.42 L 596.23 562.10 L 587.96 567.32 L 581.13 571.09 L 574.11 574.50 L 566.88 577.56 L 559.44 580.25 L 551.77 582.59 L 544.05 584.50 L 536.17 586.01 L 528.13 587.09 L 519.91 587.76 L 511.50 588.00 L 503.09 587.76 L 494.87 587.09 L 486.83 586.01 L 478.95 584.50 L 471.23 582.59 L 463.56 580.25 L 456.12 577.56 L 448.89 574.50 L 441.87 571.09 L 435.04 567.32 L 426.77 562.10 L 418.91 556.42 L 411.45 550.27 L 404.37 543.63 L 397.73 536.55 L 391.58 529.09 L 385.90 521.23 L 380.68 512.96 L 376.91 506.13 L 373.50 499.11 L 370.44 491.88 L 367.75 484.44 L 365.41 476.77 L 363.50 469.05 L 361.99 461.17 L 360.91 453.13 L 360.24 444.91 L 360.00 436.50 L 360.24 428.09 L 360.91 419.87 L 361.99 411.83 L 363.50 403.95 L 365.41 396.23 L 367.75 388.56 L 370.44 381.12 L 373.50 373.89 L 376.91 366.87 L 380.68 360.04 L 385.90 351.77 L 391.58 343.91 L 397.73 336.45 L 404.37 329.37 L 411.45 322.73 L 418.91 316.58 L 426.77 310.90 L 435.04 305.68 L 441.87 301.91 L 448.89 298.50 L 456.12 295.44 L 463.56 292.75 L 471.23 290.41 L 478.95 288.50 L 486.83 286.99 L 494.87 285.91 L 503.09 285.24 L 511.50 285.00 L 519.91 285.24 L 528.13 285.91 L 536.17 286.99 L 544.05 288.50 L 551.77 290.41 L 559.44 292.75 L 566.88 295.44 L 574.11 298.50 L 581.13 301.91 L 587.96 305.68 L 596.23 310.90 L 604.09 316.58 L 611.55 322.73 L 618.63 329.37 L 625.27 336.45 L 631.42 343.91 L 637.10 351.77 L 642.32 360.04 L 646.09 366.87 L 649.50 373.89 L 652.56 381.12 L 655.25 388.56 L 657.59 396.23 L 659.50 403.95 L 661.01 411.83 L 662.09 419.87 L 662.76 428.09 L 663.00 436.50 Z" fill="url(#radialGradient-2)" fill-rule="nonzero" group-id="1" id="椭圆形" node-id="59" stroke="none" target-height="303" target-width="303" target-x="360" target-y="285"></path><path d="M 515.00 311.50 L 514.83 314.18 L 514.40 316.61 L 513.70 318.82 L 512.72 320.91 L 511.59 322.63 L 510.29 324.02 L 508.78 325.12 L 507.20 325.76 L 505.50 326.00 L 503.80 325.76 L 502.22 325.12 L 500.71 324.02 L 499.41 322.63 L 498.28 320.91 L 497.30 318.82 L 496.60 316.61 L 496.17 314.18 L 496.00 311.50 L 496.17 308.82 L 496.60 306.39 L 497.30 304.18 L 498.28 302.09 L 499.41 300.37 L 500.71 298.98 L 502.22 297.88 L 503.80 297.24 L 505.50 297.00 L 507.20 297.24 L 508.78 297.88 L 510.29 298.98 L 511.59 300.37 L 512.72 302.09 L 513.70 304.18 L 514.40 306.39 L 514.83 308.82 L 515.00 311.50 Z" fill="url(#radialGradient-3)" fill-rule="nonzero" group-id="1" id="椭圆形" node-id="60" stroke="none" target-height="29" target-width="19" target-x="496" target-y="297"></path><path d="M 491.00 397.00 L 490.75 400.57 L 490.07 403.93 L 488.96 407.12 L 487.44 410.14 L 485.59 412.89 L 483.38 415.38 L 480.89 417.59 L 478.14 419.44 L 475.12 420.96 L 471.93 422.07 L 468.57 422.75 L 465.00 423.00 L 461.43 422.75 L 458.07 422.07 L 454.88 420.96 L 451.86 419.44 L 449.11 417.59 L 446.62 415.38 L 444.41 412.89 L 442.56 410.14 L 441.04 407.12 L 439.93 403.93 L 439.25 400.57 L 439.00 397.00 L 439.25 393.43 L 439.93 390.07 L 441.04 386.88 L 442.56 383.86 L 444.41 381.11 L 446.62 378.62 L 449.11 376.41 L 451.86 374.56 L 454.88 373.04 L 458.07 371.93 L 461.43 371.25 L 465.00 371.00 L 468.57 371.25 L 471.93 371.93 L 475.12 373.04 L 478.14 374.56 L 480.89 376.41 L 483.38 378.62 L 485.59 381.11 L 487.44 383.86 L 488.96 386.88 L 490.07 390.07 L 490.75 393.43 L 491.00 397.00 Z" fill="url(#linearGradient-4)" fill-rule="nonzero" group-id="1" id="椭圆形" node-id="61" stroke="none" target-height="52" target-width="52" target-x="439" target-y="371"></path><path d="M 412.00 460.50 L 411.71 464.64 L 410.93 468.41 L 409.68 471.86 L 407.95 475.08 L 405.92 477.75 L 403.58 479.93 L 401.58 481.26 L 399.51 482.20 L 397.32 482.78 L 395.00 483.00 L 392.68 482.78 L 390.49 482.20 L 388.42 481.26 L 386.42 479.93 L 384.08 477.75 L 382.05 475.08 L 380.32 471.86 L 379.07 468.41 L 378.29 464.64 L 378.00 460.50 L 378.29 456.36 L 379.07 452.59 L 380.32 449.14 L 382.05 445.92 L 384.08 443.25 L 386.42 441.07 L 388.42 439.74 L 390.49 438.80 L 392.68 438.22 L 395.00 438.00 L 397.32 438.22 L 399.51 438.80 L 401.58 439.74 L 403.58 441.07 L 405.92 443.25 L 407.95 445.92 L 409.68 449.14 L 410.93 452.59 L 411.71 456.36 L 412.00 460.50 Z" fill="url(#radialGradient-5)" fill-rule="nonzero" group-id="1" id="椭圆形" node-id="62" stroke="none" target-height="45" target-width="34" target-x="378" target-y="438"></path><path d="M 592.00 464.00 L 591.75 467.57 L 591.07 470.93 L 589.96 474.12 L 588.44 477.14 L 586.59 479.89 L 584.38 482.38 L 581.89 484.59 L 579.14 486.44 L 576.12 487.96 L 572.93 489.07 L 569.57 489.75 L 566.00 490.00 L 562.43 489.75 L 559.07 489.07 L 555.88 487.96 L 552.86 486.44 L 550.11 484.59 L 547.62 482.38 L 545.41 479.89 L 543.56 477.14 L 542.04 474.12 L 540.93 470.93 L 540.25 467.57 L 540.00 464.00 L 540.25 460.43 L 540.93 457.07 L 542.04 453.88 L 543.56 450.86 L 545.41 448.11 L 547.62 445.62 L 550.11 443.41 L 552.86 441.56 L 555.88 440.04 L 559.07 438.93 L 562.43 438.25 L 566.00 438.00 L 569.57 438.25 L 572.93 438.93 L 576.12 440.04 L 579.14 441.56 L 581.89 443.41 L 584.38 445.62 L 586.59 448.11 L 588.44 450.86 L 589.96 453.88 L 591.07 457.07 L 591.75 460.43 L 592.00 464.00 Z" fill="url(#radialGradient-6)" fill-rule="nonzero" group-id="1" id="椭圆形" node-id="63" stroke="none" target-height="52" target-width="52" target-x="540" target-y="438"></path><path d="M 599.00 382.00 L 598.81 384.01 L 598.31 385.85 L 597.50 387.55 L 596.40 389.10 L 595.10 390.40 L 593.55 391.50 L 591.85 392.31 L 590.01 392.81 L 588.00 393.00 L 585.99 392.81 L 584.15 392.31 L 582.45 391.50 L 580.90 390.40 L 579.60 389.10 L 578.50 387.55 L 577.69 385.85 L 577.19 384.01 L 577.00 382.00 L 577.19 379.99 L 577.69 378.15 L 578.50 376.45 L 579.60 374.90 L 580.90 373.60 L 582.45 372.50 L 584.15 371.69 L 585.99 371.19 L 588.00 371.00 L 590.01 371.19 L 591.85 371.69 L 593.55 372.50 L 595.10 373.60 L 596.40 374.90 L 597.50 376.45 L 598.31 378.15 L 598.81 379.99 L 599.00 382.00 Z" fill="url(#radialGradient-7)" fill-rule="nonzero" group-id="1" id="椭圆形" node-id="64" stroke="none" target-height="22" target-width="22" target-x="577" target-y="371"></path><path d="M 651.20 361.58 L 656.06 363.46 L 659.97 365.51 L 663.08 367.69 L 665.50 370.01 L 667.33 372.47 L 668.63 375.09 L 669.43 377.91 L 669.74 380.99 L 669.50 384.39 L 668.66 388.18 L 667.13 392.43 L 664.76 397.23 L 661.43 402.64 L 656.97 408.74 L 651.20 415.63 L 646.33 420.69 L 640.26 426.20 L 632.82 432.21 L 625.15 437.86 L 616.49 443.77 L 606.75 449.95 L 596.86 455.84 L 586.25 461.79 L 574.88 467.81 L 563.40 473.57 L 551.49 479.22 L 539.14 484.76 L 526.68 490.03 L 514.11 495.02 L 501.42 499.74 L 488.62 504.17 L 476.02 508.16 L 463.62 511.73 L 451.11 514.94 L 439.13 517.59 L 427.66 519.69 L 416.09 521.31 L 405.37 522.25 L 395.44 522.57 L 386.16 522.31 L 378.76 521.60 L 372.96 520.53 L 368.48 519.21 L 365.10 517.69 L 362.60 516.02 L 360.83 514.23 L 359.64 512.29 L 358.98 510.17 L 358.82 507.80 L 359.24 505.09 L 360.33 501.94 L 362.26 498.24 L 365.22 493.90 L 351.42 504.50 L 340.15 513.81 L 331.09 521.95 L 323.95 529.04 L 318.47 535.19 L 314.39 540.52 L 311.49 545.13 L 309.58 549.11 L 308.46 552.56 L 308.02 555.57 L 308.14 558.22 L 308.77 560.60 L 309.89 562.78 L 311.56 564.79 L 313.86 566.67 L 316.91 568.42 L 319.53 569.42 L 322.87 570.21 L 327.07 570.76 L 332.28 570.99 L 338.97 570.84 L 346.86 570.24 L 356.10 569.10 L 370.18 566.77 L 386.37 563.45 L 403.05 559.50 L 421.09 554.75 L 439.37 549.51 L 458.27 543.70 L 477.17 537.51 L 495.93 531.01 L 514.44 524.22 L 532.06 517.38 L 549.18 510.34 L 564.67 503.54 L 579.39 496.57 L 591.77 490.17 L 617.88 475.86 L 647.30 459.24 L 662.51 450.34 L 677.72 441.12 L 692.69 431.68 L 706.82 422.30 L 716.05 415.86 L 724.53 409.61 L 732.30 403.57 L 739.89 397.23 L 746.37 391.29 L 751.85 385.73 L 755.80 381.20 L 758.93 377.02 L 761.35 373.16 L 763.14 369.59 L 764.27 366.45 L 764.87 363.57 L 764.98 360.88 L 764.65 358.35 L 763.87 355.94 L 762.70 353.77 L 761.00 351.66 L 758.69 349.59 L 755.64 347.56 L 751.74 345.58 L 748.28 344.39 L 743.93 343.52 L 738.50 343.05 L 731.78 343.09 L 723.57 343.75 L 713.63 345.17 L 701.70 347.50 L 687.51 350.89 L 670.78 355.52 L 651.20 361.58 Z" fill="url(#linearGradient-8)" fill-rule="evenodd" group-id="1" id="路径" node-id="65" stroke="none" target-height="227.94" target-width="456.96" target-x="308.02" target-y="343.05"></path><path d="M 303.91 544.98 L 299.87 552.42 L 297.00 558.61 L 295.10 563.72 L 294.00 567.92 L 293.54 571.35 L 293.59 574.14 L 294.07 576.41 L 294.91 578.28 L 296.11 579.81 L 297.62 580.86 L 300.15 581.87 L 304.10 582.76 L 310.39 583.52 L 318.70 583.91 L 327.53 583.90 L 337.51 583.53 L 347.71 582.85 L 358.16 581.87 L 368.53 580.63 L 378.26 579.19 L 387.61 577.51 L 395.43 575.76 L 405.08 573.17 L 417.00 569.63 L 429.52 565.66 L 443.56 560.97 L 457.94 555.96 L 473.10 550.50 L 488.36 544.82 L 503.64 538.96 L 518.77 532.98 L 533.17 527.10 L 547.16 521.18 L 559.69 515.65 L 571.54 510.16 L 581.21 505.36 L 597.70 496.70 L 620.81 484.18 L 648.33 468.74 L 662.94 460.29 L 678.00 451.35 L 692.99 442.18 L 707.60 432.93 L 721.85 423.53 L 734.90 414.45 L 743.37 408.25 L 750.94 402.39 L 757.67 396.86 L 765.20 390.09 L 771.02 384.16 L 775.39 378.98 L 778.52 374.45 L 780.65 370.50 L 781.93 367.04 L 782.51 363.98 L 782.51 361.24 L 781.96 358.73 L 780.89 356.41 L 779.24 354.21 L 776.94 352.11 L 773.84 350.11 L 769.78 348.21 L 764.57 346.46 L 768.54 345.45 L 772.16 345.02 L 775.47 345.12 L 778.53 345.71 L 781.39 346.77 L 784.08 348.32 L 786.65 350.40 L 788.23 352.18 L 789.51 354.39 L 790.49 357.12 L 790.96 359.97 L 790.91 363.35 L 790.23 367.37 L 789.02 371.26 L 786.96 375.79 L 783.88 381.08 L 780.35 386.04 L 775.60 391.70 L 769.41 398.16 L 762.89 404.20 L 754.77 410.97 L 744.83 418.52 L 732.08 427.56 L 718.83 436.61 L 705.06 445.66 L 684.09 458.85 L 662.41 471.83 L 640.41 484.42 L 618.17 496.60 L 595.78 508.35 L 573.63 519.50 L 560.64 525.74 L 546.16 532.35 L 531.20 538.86 L 515.27 545.50 L 499.05 551.98 L 482.40 558.35 L 465.64 564.46 L 448.99 570.24 L 432.41 575.68 L 416.49 580.56 L 400.80 584.99 L 386.33 588.67 L 372.25 591.77 L 359.95 593.94 L 345.88 595.76 L 334.08 596.73 L 324.28 597.00 L 316.69 596.79 L 310.28 596.28 L 304.92 595.51 L 300.46 594.54 L 295.80 593.10 L 292.13 591.55 L 289.29 589.93 L 287.14 588.24 L 285.22 586.14 L 283.95 584.06 L 283.22 581.97 L 283.00 579.81 L 283.29 575.55 L 284.15 571.32 L 285.61 567.09 L 287.71 562.83 L 290.50 558.51 L 294.07 554.11 L 298.51 549.60 L 303.91 544.98 Z" fill="url(#linearGradient-9)" fill-rule="evenodd" group-id="1" id="路径" node-id="66" stroke="none" target-height="251.98001" target-width="507.96002" target-x="283" target-y="345.02"></path></g><g node-id="209"><path d="M 229.77 537.00 L 240.15 537.00 L 240.15 591.67 L 239.95 593.12 L 239.45 594.36 L 238.63 595.44 L 237.58 596.28 L 236.37 596.80 L 234.96 597.00 L 234.96 597.00 L 233.55 596.80 L 232.35 596.28 L 231.29 595.44 L 230.48 594.36 L 229.97 593.12 L 229.77 591.67 L 229.77 537.00 Z" fill="#3f78d6" fill-rule="nonzero" group-id="2" id="路径" node-id="68" stroke="none" target-height="60" target-width="10.37999" target-x="229.77" target-y="537"></path><path d="M 229.77 507.00 L 254.00 570.33 L 229.77 587.00 Z" fill="url(#linearGradient-10)" fill-rule="evenodd" group-id="2" id="路径" node-id="69" stroke="none" target-height="80" target-width="24.229996" target-x="229.77" target-y="507"></path><g node-id="213"><path d="M 229.77 507.00 L 209.00 577.00 L 229.77 587.00 Z" fill="url(#linearGradient-11)" fill-rule="evenodd" group-id="2,6" node-id="206" stroke="none" target-height="80" target-width="20.770004" target-x="209" target-y="507"></path></g></g><g node-id="210"><path d="M 807.00 495.00 L 815.00 495.00 L 815.00 537.82 L 814.68 539.46 L 813.83 540.78 L 812.56 541.67 L 811.00 542.00 L 811.00 542.00 L 809.44 541.67 L 808.17 540.78 L 807.32 539.46 L 807.00 537.82 L 807.00 495.00 Z" fill="#3f78d6" fill-rule="nonzero" group-id="3" id="路径" node-id="73" stroke="none" target-height="47" target-width="8" target-x="807" target-y="495"></path><path d="M 807.00 472.00 L 826.00 521.08 L 807.00 534.00 Z" fill="url(#linearGradient-12)" fill-rule="evenodd" group-id="3" id="路径" node-id="74" stroke="none" target-height="62" target-width="19" target-x="807" target-y="472"></path><g node-id="214"><path d="M 807.00 472.00 L 791.00 526.25 L 807.00 534.00 Z" fill="url(#linearGradient-13)" fill-rule="evenodd" group-id="3,7" id="路径" node-id="76" stroke="none" target-height="62" target-width="16" target-x="791" target-y="472"></path></g></g><g node-id="211"><path d="M 281.00 463.00 L 289.00 463.00 L 289.00 504.00 L 288.68 505.57 L 287.83 506.83 L 286.57 507.68 L 285.00 508.00 L 285.00 508.00 L 283.43 507.68 L 282.17 506.83 L 281.32 505.57 L 281.00 504.00 L 281.00 463.00 Z" fill="#3f78d6" fill-rule="nonzero" group-id="4" id="路径" node-id="78" stroke="none" target-height="45" target-width="8" target-x="281" target-y="463"></path><path d="M 281.00 440.00 L 299.00 487.50 L 281.00 500.00 Z" fill="url(#linearGradient-14)" fill-rule="evenodd" group-id="4" id="路径" node-id="79" stroke="none" target-height="60" target-width="18" target-x="281" target-y="440"></path><g node-id="215"><path d="M 281.00 440.00 L 265.00 492.50 L 281.00 500.00 Z" fill="url(#linearGradient-15)" fill-rule="evenodd" group-id="4,8" id="路径" node-id="81" stroke="none" target-height="60" target-width="16" target-x="265" target-y="440"></path></g></g><path d="M 334.00 317.50 C 334.00 337.11 318.11 353.00 298.50 353.00 C 278.89 353.00 263.00 337.11 263.00 317.50 C 263.00 297.89 278.89 282.00 298.50 282.00 C 318.11 282.00 334.00 297.89 334.00 317.50 Z" fill="url(#radialGradient-16)" fill-rule="nonzero" id="椭圆形" node-id="82" stroke="none" target-height="71" target-width="71" target-x="263" target-y="282"></path><path d="M 725.00 522.50 C 725.00 533.27 716.27 542.00 705.50 542.00 C 694.73 542.00 686.00 533.27 686.00 522.50 C 686.00 511.73 694.73 503.00 705.50 503.00 C 716.27 503.00 725.00 511.73 725.00 522.50 Z" fill="url(#radialGradient-16)" fill-opacity="0.56253344" fill-rule="nonzero" group-id="5" id="椭圆形备份" node-id="83" stroke="none" target-height="39" target-width="39" target-x="686" target-y="503"></path></svg>