<?xml version="1.0" standalone="no"?><!DOCTYPE svg PUBLIC "-//W3C//DTD SVG 1.1//EN" "http://www.w3.org/Graphics/SVG/1.1/DTD/svg11.dtd"><svg height="1024" node-id="1" sillyvg="true" template-height="1024" template-width="1024" version="1.1" viewBox="0 0 1024 1024" width="1024" xmlns="http://www.w3.org/2000/svg" xmlns:xlink="http://www.w3.org/1999/xlink"><defs node-id="69"><radialGradient cx="0.5" cy="0.024678005" fx="0.5" fy="0.024678005" gradientTransform="matrix(-0.01748041 0.99965267 -0.66306062 -0.02635406 0.52510321 -0.47449797)" gradientUnits="objectBoundingBox" id="radialGradient-1" node-id="5" r="0.70727026" spreadMethod="pad"><stop offset="0" stop-color="#0052d9" stop-opacity="0.15156181"></stop><stop offset="1" stop-color="#0052d9" stop-opacity="0"></stop></radialGradient><linearGradient gradientUnits="objectBoundingBox" id="linearGradient-2" node-id="8" spreadMethod="pad" x1="0.5" x2="0.5" y1="0" y2="1"><stop offset="0" stop-color="#72a0e8"></stop><stop offset="0.9939955" stop-color="#3981f7"></stop></linearGradient><linearGradient gradientUnits="objectBoundingBox" id="linearGradient-3" node-id="11" spreadMethod="pad" x1="0.5" x2="0.5" y1="0" y2="1"><stop offset="0.0127618965" stop-color="#b7d2ff"></stop><stop offset="1" stop-color="#93bbff"></stop></linearGradient><linearGradient gradientUnits="objectBoundingBox" id="linearGradient-4" node-id="14" spreadMethod="pad" x1="0.5" x2="0.5" y1="0" y2="1"><stop offset="0" stop-color="#72a0e8"></stop><stop offset="0.9939955" stop-color="#3981f7"></stop></linearGradient><linearGradient gradientUnits="objectBoundingBox" id="linearGradient-5" node-id="17" spreadMethod="pad" x1="0.5" x2="0.5" y1="0" y2="1"><stop offset="0.0127618965" stop-color="#b7d2ff"></stop><stop offset="1" stop-color="#93bbff"></stop></linearGradient><linearGradient gradientUnits="objectBoundingBox" id="linearGradient-6" node-id="20" spreadMethod="pad" x1="0.5" x2="0.5" y1="0" y2="1"><stop offset="0" stop-color="#72a0e8"></stop><stop offset="0.9939955" stop-color="#3981f7"></stop></linearGradient><linearGradient gradientUnits="objectBoundingBox" id="linearGradient-7" node-id="23" spreadMethod="pad" x1="0.5" x2="0.5" y1="0" y2="1"><stop offset="0.0127618965" stop-color="#b7d2ff"></stop><stop offset="1" stop-color="#93bbff"></stop></linearGradient><radialGradient cx="0.24042307" cy="0.5" fx="0.24042307" fy="0.5" gradientUnits="objectBoundingBox" id="radialGradient-8" node-id="26" r="0.66169447" spreadMethod="pad"><stop offset="0" stop-color="#f2f7ff"></stop><stop offset="1" stop-color="#99c0ff"></stop></radialGradient><linearGradient gradientUnits="objectBoundingBox" id="linearGradient-9" node-id="29" spreadMethod="pad" x1="0.7772662" x2="0.21471463" y1="0.61340225" y2="-0.09300757"><stop offset="0" stop-color="#5e9bff"></stop><stop offset="1" stop-color="#e2edff"></stop></linearGradient><linearGradient gradientUnits="objectBoundingBox" id="linearGradient-10" node-id="32" spreadMethod="pad" x1="0" x2="0" y1="1" y2="0"><stop offset="0" stop-color="#e5ebff"></stop><stop offset="1" stop-color="#cad5ff"></stop></linearGradient><linearGradient gradientUnits="objectBoundingBox" id="linearGradient-11" node-id="35" spreadMethod="pad" x1="0.7763948" x2="0.21561126" y1="0.61340225" y2="-0.09300757"><stop offset="0" stop-color="#e2edff"></stop><stop offset="1" stop-color="#5e9bff"></stop></linearGradient><linearGradient gradientUnits="objectBoundingBox" id="linearGradient-12" node-id="38" spreadMethod="pad" x1="0" x2="0" y1="1" y2="0"><stop offset="0" stop-color="#ffffff"></stop><stop offset="1" stop-color="#f0f3ff"></stop></linearGradient></defs><g node-id="172"><g node-id="174"><path d="M 945.26 736.99 L 945.03 746.23 L 944.34 755.41 L 943.21 764.53 L 941.63 773.61 L 939.60 782.66 L 937.11 791.67 L 933.59 802.25 L 929.46 812.74 L 924.71 823.14 L 919.31 833.48 L 913.24 843.76 L 906.77 853.59 L 899.69 863.30 L 891.98 872.90 L 883.62 882.39 L 874.59 891.78 L 865.34 900.62 L 855.48 909.28 L 845.00 917.78 L 833.87 926.11 L 822.06 934.27 L 810.13 941.88 L 797.77 949.16 L 784.97 956.13 L 771.72 962.79 L 758.00 969.11 L 744.22 974.95 L 730.10 980.44 L 715.63 985.57 L 700.80 990.34 L 685.60 994.75 L 670.40 998.70 L 654.96 1002.26 L 639.26 1005.43 L 623.30 1008.20 L 607.07 1010.58 L 590.89 1012.51 L 574.55 1014.02 L 558.07 1015.11 L 541.43 1015.76 L 524.63 1015.99 L 507.83 1015.76 L 491.19 1015.11 L 474.71 1014.02 L 458.37 1012.51 L 442.19 1010.58 L 425.96 1008.20 L 410.00 1005.43 L 394.30 1002.26 L 378.86 998.70 L 363.66 994.75 L 348.46 990.34 L 333.63 985.57 L 319.16 980.44 L 305.04 974.95 L 291.26 969.11 L 277.54 962.79 L 264.29 956.13 L 251.49 949.16 L 239.13 941.88 L 227.20 934.27 L 215.39 926.11 L 204.26 917.78 L 193.78 909.28 L 183.92 900.62 L 174.67 891.78 L 165.64 882.39 L 157.28 872.90 L 149.57 863.30 L 142.49 853.59 L 136.02 843.76 L 129.95 833.48 L 124.55 823.14 L 119.80 812.74 L 115.67 802.25 L 112.15 791.67 L 109.66 782.66 L 107.63 773.61 L 106.05 764.53 L 104.92 755.41 L 104.23 746.23 L 104.00 736.99 L 104.23 727.75 L 104.92 718.57 L 106.05 709.45 L 107.63 700.37 L 109.66 691.32 L 112.15 682.31 L 115.67 671.73 L 119.80 661.24 L 124.55 650.84 L 129.95 640.50 L 136.02 630.22 L 142.49 620.39 L 149.57 610.68 L 157.28 601.08 L 165.64 591.59 L 174.67 582.20 L 183.92 573.36 L 193.78 564.70 L 204.26 556.20 L 215.39 547.87 L 227.20 539.71 L 239.13 532.10 L 251.49 524.82 L 264.29 517.85 L 277.54 511.19 L 291.26 504.87 L 305.04 499.03 L 319.16 493.54 L 333.63 488.41 L 348.46 483.64 L 363.66 479.23 L 378.86 475.28 L 394.30 471.72 L 410.00 468.55 L 425.96 465.78 L 442.19 463.40 L 458.37 461.47 L 474.71 459.96 L 491.19 458.87 L 507.83 458.22 L 524.63 457.99 L 541.43 458.22 L 558.07 458.87 L 574.55 459.96 L 590.89 461.47 L 607.07 463.40 L 623.30 465.78 L 639.26 468.55 L 654.96 471.72 L 670.40 475.28 L 685.60 479.23 L 700.80 483.64 L 715.63 488.41 L 730.10 493.54 L 744.22 499.03 L 758.00 504.87 L 771.72 511.19 L 784.97 517.85 L 797.77 524.82 L 810.13 532.10 L 822.06 539.71 L 833.87 547.87 L 845.00 556.20 L 855.48 564.70 L 865.34 573.36 L 874.59 582.20 L 883.62 591.59 L 891.98 601.08 L 899.69 610.68 L 906.77 620.39 L 913.24 630.22 L 919.31 640.50 L 924.71 650.84 L 929.46 661.24 L 933.59 671.73 L 937.11 682.31 L 939.60 691.32 L 941.63 700.37 L 943.21 709.45 L 944.34 718.57 L 945.03 727.75 Z" fill="url(#radialGradient-1)" fill-rule="nonzero" group-id="1,3" id="椭圆形" node-id="44" stroke="none" target-height="558" target-width="841.26" target-x="104" target-y="457.99"></path><g node-id="175"><path d="M 242.40 554.99 L 252.78 554.99 L 252.78 609.66 L 252.58 611.11 L 252.08 612.35 L 251.26 613.43 L 250.21 614.27 L 249.00 614.79 L 247.59 614.99 L 247.59 614.99 L 246.18 614.79 L 244.98 614.27 L 243.92 613.43 L 243.11 612.35 L 242.60 611.11 L 242.40 609.66 Z" fill="#3f78d6" fill-rule="nonzero" group-id="1,3,4" node-id="150" stroke="none" target-height="60" target-width="10.380005" target-x="242.4" target-y="554.99"></path><path d="M 242.40 524.99 L 266.63 588.32 L 242.40 604.99 Z" fill="url(#linearGradient-2)" fill-rule="evenodd" group-id="1,3,4" node-id="152" stroke="none" target-height="80" target-width="24.230011" target-x="242.4" target-y="524.99"></path><path d="M 242.40 524.99 L 221.63 594.99 L 242.40 604.99 Z" fill="url(#linearGradient-3)" fill-rule="evenodd" group-id="1,3,4" node-id="154" stroke="none" target-height="80" target-width="20.769989" target-x="221.63" target-y="524.99"></path></g><g node-id="176"><path d="M 819.63 512.99 L 827.63 512.99 L 827.63 555.81 L 827.31 557.45 L 826.46 558.77 L 825.19 559.66 L 823.63 559.99 L 823.63 559.99 L 822.07 559.66 L 820.80 558.77 L 819.95 557.45 L 819.63 555.81 Z" fill="#3f78d6" fill-rule="nonzero" group-id="1,3,5" node-id="158" stroke="none" target-height="47" target-width="8" target-x="819.63" target-y="512.99"></path><path d="M 819.63 489.99 L 838.63 539.07 L 819.63 551.99 Z" fill="url(#linearGradient-4)" fill-rule="evenodd" group-id="1,3,5" node-id="160" stroke="none" target-height="62" target-width="19" target-x="819.63" target-y="489.99"></path><path d="M 819.63 489.99 L 803.63 544.24 L 819.63 551.99 Z" fill="url(#linearGradient-5)" fill-rule="evenodd" group-id="1,3,5" node-id="162" stroke="none" target-height="62" target-width="16" target-x="803.63" target-y="489.99"></path></g><g node-id="177"><path d="M 293.63 480.99 L 301.63 480.99 L 301.63 521.99 L 301.31 523.56 L 300.46 524.82 L 299.20 525.67 L 297.63 525.99 L 297.63 525.99 L 296.06 525.67 L 294.80 524.82 L 293.95 523.56 L 293.63 521.99 Z" fill="#3f78d6" fill-rule="nonzero" group-id="1,3,6" node-id="166" stroke="none" target-height="45" target-width="8" target-x="293.63" target-y="480.99"></path><path d="M 293.63 457.99 L 311.63 505.49 L 293.63 517.99 Z" fill="url(#linearGradient-6)" fill-rule="evenodd" group-id="1,3,6" node-id="168" stroke="none" target-height="60" target-width="18" target-x="293.63" target-y="457.99"></path><path d="M 293.63 457.99 L 277.63 510.49 L 293.63 517.99 Z" fill="url(#linearGradient-7)" fill-rule="evenodd" group-id="1,3,6" node-id="170" stroke="none" target-height="60" target-width="16" target-x="277.63" target-y="457.99"></path></g></g><path d="M 393.63 311.49 L 393.29 316.37 L 392.36 320.96 L 390.84 325.31 L 388.77 329.43 L 386.24 333.18 L 383.23 336.59 L 379.82 339.60 L 376.07 342.13 L 371.95 344.20 L 367.60 345.72 L 363.01 346.65 L 358.13 346.99 L 353.25 346.65 L 348.66 345.72 L 344.31 344.20 L 340.19 342.13 L 336.44 339.60 L 333.03 336.59 L 330.02 333.18 L 327.49 329.43 L 325.42 325.31 L 323.90 320.96 L 322.97 316.37 L 322.63 311.49 L 322.97 306.61 L 323.90 302.02 L 325.42 297.67 L 327.49 293.55 L 330.02 289.80 L 333.03 286.39 L 336.44 283.38 L 340.19 280.85 L 344.31 278.78 L 348.66 277.26 L 353.25 276.33 L 358.13 275.99 L 363.01 276.33 L 367.60 277.26 L 371.95 278.78 L 376.07 280.85 L 379.82 283.38 L 383.23 286.39 L 386.24 289.80 L 388.77 293.55 L 390.84 297.67 L 392.36 302.02 L 393.29 306.61 Z" fill="url(#radialGradient-8)" fill-rule="nonzero" group-id="1" id="椭圆形" node-id="57" stroke="none" target-height="71" target-width="71" target-x="322.63" target-y="275.99"></path><path d="M 743.63 438.49 L 743.30 442.05 L 742.41 445.31 L 740.97 448.33 L 739.03 451.07 L 736.71 453.39 L 733.97 455.33 L 730.95 456.77 L 727.69 457.66 L 724.13 457.99 L 720.57 457.66 L 717.31 456.77 L 714.29 455.33 L 711.55 453.39 L 709.23 451.07 L 707.29 448.33 L 705.85 445.31 L 704.96 442.05 L 704.63 438.49 L 704.96 434.93 L 705.85 431.67 L 707.29 428.65 L 709.23 425.91 L 711.55 423.59 L 714.29 421.65 L 717.31 420.21 L 720.57 419.32 L 724.13 418.99 L 727.69 419.32 L 730.95 420.21 L 733.97 421.65 L 736.71 423.59 L 739.03 425.91 L 740.97 428.65 L 742.41 431.67 L 743.30 434.93 Z" fill="url(#radialGradient-8)" fill-opacity="0.56253344" fill-rule="nonzero" group-id="1" id="椭圆形备份" node-id="58" stroke="none" target-height="39" target-width="39" target-x="704.63" target-y="418.99"></path></g><g node-id="173"><path d="M 430.25 294.63 L 446.26 286.94 L 462.12 279.71 L 494.30 265.31 L 510.64 257.69 L 527.75 249.19 L 532.03 247.29 L 536.20 245.98 L 540.29 245.23 L 544.34 245.00 L 548.39 245.28 L 552.38 246.07 L 556.32 247.36 L 560.25 249.19 L 572.68 255.66 L 585.34 261.89 L 598.10 267.89 L 610.71 273.63 L 635.21 284.51 L 657.75 294.63 L 661.64 296.56 L 664.78 298.49 L 667.27 300.41 L 669.42 302.67 L 671.14 305.28 L 672.44 308.30 L 673.27 311.51 L 673.81 315.56 L 674.00 320.59 L 674.00 341.61 L 674.00 368.85 L 674.00 400.36 L 674.00 434.18 L 673.71 440.23 L 672.91 446.27 L 671.59 452.32 L 669.75 458.39 L 667.49 464.30 L 664.83 470.17 L 661.76 476.02 L 658.26 481.85 L 653.17 489.32 L 647.57 496.63 L 641.44 503.78 L 634.96 510.63 L 628.21 517.18 L 621.19 523.43 L 613.92 529.40 L 606.66 534.94 L 599.42 540.04 L 591.97 544.88 L 584.84 549.13 L 578.02 552.84 L 571.02 556.27 L 564.67 558.99 L 558.92 561.08 L 553.00 562.78 L 548.08 563.71 L 544.00 564.00 L 539.92 563.71 L 535.00 562.78 L 529.08 561.08 L 523.33 558.99 L 516.98 556.27 L 509.98 552.84 L 503.16 549.13 L 496.03 544.88 L 488.58 540.04 L 481.34 534.94 L 474.08 529.40 L 466.81 523.43 L 459.79 517.18 L 453.04 510.63 L 446.56 503.78 L 440.43 496.63 L 434.83 489.32 L 429.74 481.85 L 426.24 476.02 L 423.17 470.17 L 420.51 464.30 L 418.25 458.39 L 416.41 452.32 L 415.09 446.27 L 414.29 440.23 L 414.00 434.18 L 414.00 400.09 L 414.00 368.54 L 414.00 341.42 L 414.00 320.59 L 414.24 314.81 L 414.89 310.51 L 415.64 307.86 L 416.60 305.61 L 417.74 303.70 L 419.14 301.97 L 420.81 300.36 L 422.78 298.85 L 426.07 296.82 L 430.25 294.63 Z" fill="#7a94f2" fill-rule="evenodd" group-id="2" id="路径" node-id="60" stroke="none" target-height="319" target-width="260" target-x="414" target-y="245"></path><path d="M 430.25 294.63 L 446.26 286.94 L 462.12 279.71 L 494.30 265.31 L 510.64 257.69 L 527.75 249.19 L 532.03 247.29 L 536.20 245.98 L 540.29 245.23 L 544.34 245.00 L 548.39 245.28 L 552.38 246.07 L 556.32 247.36 L 560.25 249.19 L 572.68 255.66 L 585.34 261.89 L 598.10 267.89 L 610.71 273.63 L 635.21 284.51 L 657.75 294.63 L 661.64 296.56 L 664.78 298.49 L 667.27 300.41 L 669.42 302.67 L 671.14 305.28 L 672.44 308.30 L 673.27 311.51 L 673.81 315.56 L 674.00 320.59 L 674.00 341.61 L 674.00 368.85 L 674.00 400.36 L 674.00 434.18 L 673.71 440.23 L 672.91 446.27 L 671.59 452.32 L 669.75 458.39 L 667.49 464.30 L 664.83 470.17 L 661.76 476.02 L 658.26 481.85 L 653.17 489.32 L 647.57 496.63 L 641.44 503.78 L 634.96 510.63 L 628.21 517.18 L 621.19 523.43 L 613.92 529.40 L 606.66 534.94 L 599.42 540.04 L 591.97 544.88 L 584.84 549.13 L 578.02 552.84 L 571.02 556.27 L 564.67 558.99 L 558.92 561.08 L 553.00 562.78 L 548.08 563.71 L 544.00 564.00 L 539.92 563.71 L 535.00 562.78 L 529.08 561.08 L 523.33 558.99 L 516.98 556.27 L 509.98 552.84 L 503.16 549.13 L 496.03 544.88 L 488.58 540.04 L 481.34 534.94 L 474.08 529.40 L 466.81 523.43 L 459.79 517.18 L 453.04 510.63 L 446.56 503.78 L 440.43 496.63 L 434.83 489.32 L 429.74 481.85 L 426.24 476.02 L 423.17 470.17 L 420.51 464.30 L 418.25 458.39 L 416.41 452.32 L 415.09 446.27 L 414.29 440.23 L 414.00 434.18 L 414.00 400.09 L 414.00 368.54 L 414.00 341.42 L 414.00 320.59 L 414.24 314.81 L 414.89 310.51 L 415.64 307.86 L 416.60 305.61 L 417.74 303.70 L 419.14 301.97 L 420.81 300.36 L 422.78 298.85 L 426.07 296.82 L 430.25 294.63 Z" fill="url(#linearGradient-9)" fill-rule="evenodd" group-id="2" id="路径" node-id="61" stroke="none" target-height="319" target-width="260" target-x="414" target-y="245"></path><path d="M 453.00 317.67 L 465.81 311.53 L 478.50 305.75 L 504.24 294.24 L 517.31 288.14 L 531.00 281.35 L 534.43 279.83 L 537.76 278.78 L 541.04 278.18 L 544.27 278.00 L 547.51 278.23 L 550.70 278.85 L 553.86 279.89 L 557.00 281.35 L 570.31 288.20 L 583.86 294.71 L 597.46 300.93 L 610.57 306.76 L 635.00 317.67 L 638.11 319.21 L 640.62 320.76 L 642.61 322.30 L 644.34 324.10 L 645.71 326.19 L 646.75 328.60 L 647.42 331.17 L 647.85 334.40 L 648.00 338.43 L 648.00 355.23 L 648.00 377.00 L 648.00 402.19 L 648.00 429.23 L 647.69 434.75 L 646.87 440.26 L 645.51 445.77 L 643.60 451.31 L 641.29 456.67 L 638.59 461.98 L 635.47 467.25 L 631.93 472.49 L 626.83 479.17 L 621.27 485.62 L 615.25 491.85 L 608.93 497.79 L 602.46 503.33 L 595.85 508.49 L 589.01 513.38 L 582.40 517.70 L 575.99 521.50 L 569.38 525.01 L 563.39 527.81 L 557.95 529.97 L 552.33 531.74 L 547.73 532.70 L 544.00 533.00 L 540.27 532.70 L 535.67 531.74 L 530.05 529.97 L 524.61 527.81 L 518.62 525.01 L 512.01 521.50 L 505.60 517.70 L 498.99 513.38 L 492.15 508.49 L 485.54 503.33 L 479.07 497.79 L 472.75 491.85 L 466.73 485.62 L 461.17 479.17 L 456.07 472.49 L 452.53 467.25 L 449.41 461.98 L 446.71 456.67 L 444.40 451.31 L 442.49 445.77 L 441.13 440.26 L 440.31 434.75 L 440.00 429.23 L 440.00 401.98 L 440.00 376.76 L 440.00 355.07 L 440.00 338.43 L 440.19 333.80 L 440.72 330.36 L 441.68 327.31 L 442.99 324.93 L 444.75 322.88 L 447.02 321.05 L 449.65 319.42 L 453.00 317.67 Z" fill="#7a94f2" fill-rule="evenodd" group-id="2" id="路径" node-id="62" stroke="none" target-height="255" target-width="208" target-x="440" target-y="278"></path><path d="M 453.00 317.67 L 465.81 311.53 L 478.50 305.75 L 504.24 294.24 L 517.31 288.14 L 531.00 281.35 L 534.43 279.83 L 537.76 278.78 L 541.04 278.18 L 544.27 278.00 L 547.51 278.23 L 550.70 278.85 L 553.86 279.89 L 557.00 281.35 L 570.31 288.20 L 583.86 294.71 L 597.46 300.93 L 610.57 306.76 L 635.00 317.67 L 638.11 319.21 L 640.62 320.76 L 642.61 322.30 L 644.34 324.10 L 645.71 326.19 L 646.75 328.60 L 647.42 331.17 L 647.85 334.40 L 648.00 338.43 L 648.00 355.23 L 648.00 377.00 L 648.00 402.19 L 648.00 429.23 L 647.69 434.75 L 646.87 440.26 L 645.51 445.77 L 643.60 451.31 L 641.29 456.67 L 638.59 461.98 L 635.47 467.25 L 631.93 472.49 L 626.83 479.17 L 621.27 485.62 L 615.25 491.85 L 608.93 497.79 L 602.46 503.33 L 595.85 508.49 L 589.01 513.38 L 582.40 517.70 L 575.99 521.50 L 569.38 525.01 L 563.39 527.81 L 557.95 529.97 L 552.33 531.74 L 547.73 532.70 L 544.00 533.00 L 540.27 532.70 L 535.67 531.74 L 530.05 529.97 L 524.61 527.81 L 518.62 525.01 L 512.01 521.50 L 505.60 517.70 L 498.99 513.38 L 492.15 508.49 L 485.54 503.33 L 479.07 497.79 L 472.75 491.85 L 466.73 485.62 L 461.17 479.17 L 456.07 472.49 L 452.53 467.25 L 449.41 461.98 L 446.71 456.67 L 444.40 451.31 L 442.49 445.77 L 441.13 440.26 L 440.31 434.75 L 440.00 429.23 L 440.00 401.98 L 440.00 376.76 L 440.00 355.07 L 440.00 338.43 L 440.19 333.80 L 440.72 330.36 L 441.68 327.31 L 442.99 324.93 L 444.75 322.88 L 447.02 321.05 L 449.65 319.42 L 453.00 317.67 Z" fill="url(#linearGradient-10)" fill-rule="nonzero" group-id="2" id="路径" node-id="63" stroke="none" target-height="255" target-width="208" target-x="440" target-y="278"></path><path d="M 456.56 319.43 L 468.94 313.48 L 481.20 307.88 L 506.08 296.73 L 518.71 290.82 L 531.94 284.25 L 535.25 282.77 L 538.47 281.76 L 541.64 281.18 L 544.76 281.00 L 547.89 281.22 L 550.98 281.83 L 554.02 282.83 L 557.06 284.25 L 569.92 290.88 L 583.02 297.19 L 608.83 308.85 L 632.44 319.43 L 635.44 320.92 L 637.87 322.42 L 639.79 323.91 L 641.46 325.65 L 642.79 327.67 L 643.79 330.01 L 644.43 332.50 L 644.86 335.63 L 645.00 339.53 L 645.00 355.81 L 645.00 376.90 L 645.00 401.29 L 645.00 427.48 L 644.70 432.83 L 643.91 438.17 L 642.59 443.51 L 640.75 448.88 L 638.52 454.06 L 635.90 459.21 L 632.89 464.31 L 629.47 469.39 L 624.54 475.86 L 619.17 482.11 L 613.36 488.15 L 607.24 493.89 L 600.99 499.26 L 594.60 504.26 L 588.00 508.99 L 581.61 513.18 L 575.41 516.86 L 569.03 520.26 L 563.23 522.98 L 557.98 525.07 L 552.55 526.78 L 548.11 527.71 L 544.50 528.00 L 540.89 527.71 L 536.45 526.78 L 531.02 525.07 L 525.77 522.98 L 519.97 520.26 L 513.59 516.86 L 507.39 513.18 L 501.00 508.99 L 494.40 504.26 L 488.01 499.26 L 481.76 493.89 L 475.64 488.15 L 469.83 482.11 L 464.46 475.86 L 459.53 469.39 L 456.11 464.31 L 453.10 459.21 L 450.48 454.06 L 448.25 448.88 L 446.41 443.51 L 445.09 438.17 L 444.30 432.83 L 444.00 427.48 L 444.00 401.09 L 444.00 376.66 L 444.00 355.66 L 444.00 339.53 L 444.15 335.39 L 444.59 332.18 L 445.25 329.73 L 446.28 327.44 L 447.62 325.49 L 449.29 323.85 L 452.33 321.70 L 456.56 319.43 Z" fill="#7a94f2" fill-rule="evenodd" group-id="2" id="路径" node-id="64" stroke="none" target-height="247" target-width="201" target-x="444" target-y="281"></path><path d="M 456.56 319.43 L 468.94 313.48 L 481.20 307.88 L 506.08 296.73 L 518.71 290.82 L 531.94 284.25 L 535.25 282.77 L 538.47 281.76 L 541.64 281.18 L 544.76 281.00 L 547.89 281.22 L 550.98 281.83 L 554.02 282.83 L 557.06 284.25 L 569.92 290.88 L 583.02 297.19 L 608.83 308.85 L 632.44 319.43 L 635.44 320.92 L 637.87 322.42 L 639.79 323.91 L 641.46 325.65 L 642.79 327.67 L 643.79 330.01 L 644.43 332.50 L 644.86 335.63 L 645.00 339.53 L 645.00 355.81 L 645.00 376.90 L 645.00 401.29 L 645.00 427.48 L 644.70 432.83 L 643.91 438.17 L 642.59 443.51 L 640.75 448.88 L 638.52 454.06 L 635.90 459.21 L 632.89 464.31 L 629.47 469.39 L 624.54 475.86 L 619.17 482.11 L 613.36 488.15 L 607.24 493.89 L 600.99 499.26 L 594.60 504.26 L 588.00 508.99 L 581.61 513.18 L 575.41 516.86 L 569.03 520.26 L 563.23 522.98 L 557.98 525.07 L 552.55 526.78 L 548.11 527.71 L 544.50 528.00 L 540.89 527.71 L 536.45 526.78 L 531.02 525.07 L 525.77 522.98 L 519.97 520.26 L 513.59 516.86 L 507.39 513.18 L 501.00 508.99 L 494.40 504.26 L 488.01 499.26 L 481.76 493.89 L 475.64 488.15 L 469.83 482.11 L 464.46 475.86 L 459.53 469.39 L 456.11 464.31 L 453.10 459.21 L 450.48 454.06 L 448.25 448.88 L 446.41 443.51 L 445.09 438.17 L 444.30 432.83 L 444.00 427.48 L 444.00 401.09 L 444.00 376.66 L 444.00 355.66 L 444.00 339.53 L 444.15 335.39 L 444.59 332.18 L 445.25 329.73 L 446.28 327.44 L 447.62 325.49 L 449.29 323.85 L 452.33 321.70 L 456.56 319.43 Z" fill="url(#linearGradient-11)" fill-rule="evenodd" group-id="2" id="路径" node-id="65" stroke="none" target-height="247" target-width="201" target-x="444" target-y="281"></path><path d="M 545.00 467.00 L 542.63 466.78 L 540.45 466.18 L 538.44 465.21 L 536.62 463.91 L 535.07 462.36 L 533.77 460.52 L 532.81 458.50 L 532.22 456.31 L 532.00 453.92 L 532.22 451.53 L 532.81 449.34 L 533.77 447.32 L 535.07 445.48 L 536.62 443.92 L 538.44 442.62 L 540.45 441.66 L 542.63 441.06 L 545.00 440.84 L 547.37 441.06 L 549.55 441.66 L 551.56 442.62 L 553.38 443.92 L 554.93 445.48 L 556.23 447.32 L 557.19 449.34 L 557.78 451.53 L 558.00 453.92 L 557.78 456.31 L 557.19 458.50 L 556.23 460.52 L 554.93 462.36 L 553.38 463.91 L 551.56 465.21 L 549.55 466.18 L 547.37 466.78 L 545.00 467.00 Z M 545.00 431.03 L 543.22 430.86 L 541.59 430.41 L 540.08 429.69 L 538.11 428.15 L 536.58 426.17 L 535.86 424.65 L 535.42 423.01 L 535.25 421.22 L 535.25 355.81 L 535.42 354.02 L 535.86 352.38 L 536.58 350.86 L 538.11 348.87 L 540.08 347.34 L 541.59 346.61 L 543.22 346.17 L 545.00 346.00 L 546.78 346.17 L 548.41 346.61 L 549.92 347.34 L 551.89 348.87 L 553.42 350.86 L 554.14 352.38 L 554.58 354.02 L 554.75 355.81 L 554.75 421.22 L 554.58 423.01 L 554.14 424.65 L 553.42 426.17 L 551.89 428.15 L 549.92 429.69 L 548.41 430.41 L 546.78 430.86 L 545.00 431.03 Z" fill="#496ae0" fill-rule="evenodd" group-id="2" id="形状" node-id="66" stroke="none" target-height="121" target-width="26" target-x="532" target-y="346"></path><path d="M 545.00 467.00 L 542.63 466.78 L 540.45 466.18 L 538.44 465.21 L 536.62 463.91 L 535.07 462.36 L 533.77 460.52 L 532.81 458.50 L 532.22 456.31 L 532.00 453.92 L 532.22 451.53 L 532.81 449.34 L 533.77 447.32 L 535.07 445.48 L 536.62 443.92 L 538.44 442.62 L 540.45 441.66 L 542.63 441.06 L 545.00 440.84 L 547.37 441.06 L 549.55 441.66 L 551.56 442.62 L 553.38 443.92 L 554.93 445.48 L 556.23 447.32 L 557.19 449.34 L 557.78 451.53 L 558.00 453.92 L 557.78 456.31 L 557.19 458.50 L 556.23 460.52 L 554.93 462.36 L 553.38 463.91 L 551.56 465.21 L 549.55 466.18 L 547.37 466.78 L 545.00 467.00 Z M 545.00 431.03 L 543.22 430.86 L 541.59 430.41 L 540.08 429.69 L 538.11 428.15 L 536.58 426.17 L 535.86 424.65 L 535.42 423.01 L 535.25 421.22 L 535.25 355.81 L 535.42 354.02 L 535.86 352.38 L 536.58 350.86 L 538.11 348.87 L 540.08 347.34 L 541.59 346.61 L 543.22 346.17 L 545.00 346.00 L 546.78 346.17 L 548.41 346.61 L 549.92 347.34 L 551.89 348.87 L 553.42 350.86 L 554.14 352.38 L 554.58 354.02 L 554.75 355.81 L 554.75 421.22 L 554.58 423.01 L 554.14 424.65 L 553.42 426.17 L 551.89 428.15 L 549.92 429.69 L 548.41 430.41 L 546.78 430.86 L 545.00 431.03 Z" fill="url(#linearGradient-12)" fill-rule="nonzero" group-id="2" id="形状" node-id="67" stroke="none" target-height="121" target-width="26" target-x="532" target-y="346"></path></g></svg>