<?xml version="1.0" encoding="UTF-8" ?>
<!DOCTYPE svg PUBLIC "-//W3C//DTD SVG 1.1//EN" "http://www.w3.org/Graphics/SVG/1.1/DTD/svg11.dtd">
<svg width="100pt" height="100pt" viewBox="0 0 100 100" version="1.1" xmlns="http://www.w3.org/2000/svg">
<g id="#202020ff">
<path fill="#ffffff" opacity="1.00" d=" M 9.00 4.00 C 16.84 4.00 24.67 4.00 32.50 4.00 C 32.54 20.66 32.43 37.33 32.55 53.99 C 32.53 61.53 35.96 69.44 42.98 72.91 C 43.02 80.02 43.01 87.13 42.99 94.24 L 42.98 95.76 C 33.97 94.61 25.03 90.87 18.92 83.98 C 11.88 76.13 9.07 65.35 9.02 54.99 C 8.97 38.00 9.01 21.00 9.00 4.00 Z" />
<path fill="#ffffff" opacity="1.00" d=" M 64.25 4.00 C 65.00 4.00 66.50 4.00 67.24 4.00 C 67.21 21.32 67.33 38.65 67.20 55.96 C 67.11 63.28 63.03 70.61 56.01 73.32 C 55.98 80.36 56.01 87.40 56.00 94.44 C 55.25 94.53 53.76 94.72 53.01 94.82 C 52.99 87.29 52.99 79.77 53.01 72.25 C 60.81 69.46 64.60 60.86 64.27 53.01 C 64.23 36.68 64.26 20.34 64.25 4.00 Z" />
</g>
<g id="#295ee5ff">
<path fill="#295ee5" opacity="1.00" d=" M 32.50 4.00 C 33.25 4.00 34.75 4.00 35.50 4.00 C 35.53 20.30 35.45 36.60 35.53 52.90 C 35.56 60.40 38.85 68.51 45.99 71.84 C 46.00 79.47 46.02 87.10 45.97 94.73 C 45.23 94.61 43.73 94.36 42.99 94.24 C 43.01 87.13 43.02 80.02 42.98 72.91 C 35.96 69.44 32.53 61.53 32.55 53.99 C 32.43 37.33 32.54 20.66 32.50 4.00 Z" />
<path fill="#295ee5" opacity="1.00" d=" M 67.24 4.00 C 75.08 4.00 82.92 3.99 90.75 4.01 C 90.74 21.68 90.75 39.35 90.75 57.02 C 90.54 67.17 87.22 77.64 79.96 84.96 C 73.75 91.51 64.84 94.87 56.00 95.84 L 56.00 94.44 C 56.01 87.40 55.98 80.36 56.01 73.32 C 63.03 70.61 67.11 63.28 67.20 55.96 C 67.33 38.65 67.21 21.32 67.24 4.00 Z" />
</g>
</svg>
