<?xml version="1.0" standalone="no"?>
<svg xmlns="http://www.w3.org/2000/svg" version="1.1" width="253" height="253">
	<!-- Created with https://api.qrserver.com (QR Code API, see goQR.me/api for information) -->
	<title>QR Code</title>
	<desc>https://3str.net</desc>
	<rect style="fill:rgb(255, 255, 255);fill-opacity:1" x="0" y="0" width="253" height="253" />
	<g id="elements">
		<path style="fill:rgb(0, 0, 0)" d="M 11,11 l 11,0 0,11 -11,0 z M 22,11 l 11,0 0,11 -11,0 z M 33,11 l 11,0 0,11 -11,0 z M 44,11 l 11,0 0,11 -11,0 z M 55,11 l 11,0 0,11 -11,0 z M 66,11 l 11,0 0,11 -11,0 z M 77,11 l 11,0 0,11 -11,0 z M 132,11 l 11,0 0,11 -11,0 z M 165,11 l 11,0 0,11 -11,0 z M 176,11 l 11,0 0,11 -11,0 z M 187,11 l 11,0 0,11 -11,0 z M 198,11 l 11,0 0,11 -11,0 z M 209,11 l 11,0 0,11 -11,0 z M 220,11 l 11,0 0,11 -11,0 z M 231,11 l 11,0 0,11 -11,0 z M 11,22 l 11,0 0,11 -11,0 z M 77,22 l 11,0 0,11 -11,0 z M 99,22 l 11,0 0,11 -11,0 z M 110,22 l 11,0 0,11 -11,0 z M 132,22 l 11,0 0,11 -11,0 z M 143,22 l 11,0 0,11 -11,0 z M 165,22 l 11,0 0,11 -11,0 z M 231,22 l 11,0 0,11 -11,0 z M 11,33 l 11,0 0,11 -11,0 z M 33,33 l 11,0 0,11 -11,0 z M 44,33 l 11,0 0,11 -11,0 z M 55,33 l 11,0 0,11 -11,0 z M 77,33 l 11,0 0,11 -11,0 z M 110,33 l 11,0 0,11 -11,0 z M 132,33 l 11,0 0,11 -11,0 z M 143,33 l 11,0 0,11 -11,0 z M 165,33 l 11,0 0,11 -11,0 z M 187,33 l 11,0 0,11 -11,0 z M 198,33 l 11,0 0,11 -11,0 z M 209,33 l 11,0 0,11 -11,0 z M 231,33 l 11,0 0,11 -11,0 z M 11,44 l 11,0 0,11 -11,0 z M 33,44 l 11,0 0,11 -11,0 z M 44,44 l 11,0 0,11 -11,0 z M 55,44 l 11,0 0,11 -11,0 z M 77,44 l 11,0 0,11 -11,0 z M 99,44 l 11,0 0,11 -11,0 z M 110,44 l 11,0 0,11 -11,0 z M 132,44 l 11,0 0,11 -11,0 z M 143,44 l 11,0 0,11 -11,0 z M 165,44 l 11,0 0,11 -11,0 z M 187,44 l 11,0 0,11 -11,0 z M 198,44 l 11,0 0,11 -11,0 z M 209,44 l 11,0 0,11 -11,0 z M 231,44 l 11,0 0,11 -11,0 z M 11,55 l 11,0 0,11 -11,0 z M 33,55 l 11,0 0,11 -11,0 z M 44,55 l 11,0 0,11 -11,0 z M 55,55 l 11,0 0,11 -11,0 z M 77,55 l 11,0 0,11 -11,0 z M 121,55 l 11,0 0,11 -11,0 z M 165,55 l 11,0 0,11 -11,0 z M 187,55 l 11,0 0,11 -11,0 z M 198,55 l 11,0 0,11 -11,0 z M 209,55 l 11,0 0,11 -11,0 z M 231,55 l 11,0 0,11 -11,0 z M 11,66 l 11,0 0,11 -11,0 z M 77,66 l 11,0 0,11 -11,0 z M 99,66 l 11,0 0,11 -11,0 z M 110,66 l 11,0 0,11 -11,0 z M 121,66 l 11,0 0,11 -11,0 z M 132,66 l 11,0 0,11 -11,0 z M 143,66 l 11,0 0,11 -11,0 z M 165,66 l 11,0 0,11 -11,0 z M 231,66 l 11,0 0,11 -11,0 z M 11,77 l 11,0 0,11 -11,0 z M 22,77 l 11,0 0,11 -11,0 z M 33,77 l 11,0 0,11 -11,0 z M 44,77 l 11,0 0,11 -11,0 z M 55,77 l 11,0 0,11 -11,0 z M 66,77 l 11,0 0,11 -11,0 z M 77,77 l 11,0 0,11 -11,0 z M 99,77 l 11,0 0,11 -11,0 z M 121,77 l 11,0 0,11 -11,0 z M 143,77 l 11,0 0,11 -11,0 z M 165,77 l 11,0 0,11 -11,0 z M 176,77 l 11,0 0,11 -11,0 z M 187,77 l 11,0 0,11 -11,0 z M 198,77 l 11,0 0,11 -11,0 z M 209,77 l 11,0 0,11 -11,0 z M 220,77 l 11,0 0,11 -11,0 z M 231,77 l 11,0 0,11 -11,0 z M 121,88 l 11,0 0,11 -11,0 z M 11,99 l 11,0 0,11 -11,0 z M 22,99 l 11,0 0,11 -11,0 z M 33,99 l 11,0 0,11 -11,0 z M 44,99 l 11,0 0,11 -11,0 z M 55,99 l 11,0 0,11 -11,0 z M 77,99 l 11,0 0,11 -11,0 z M 88,99 l 11,0 0,11 -11,0 z M 99,99 l 11,0 0,11 -11,0 z M 110,99 l 11,0 0,11 -11,0 z M 132,99 l 11,0 0,11 -11,0 z M 154,99 l 11,0 0,11 -11,0 z M 176,99 l 11,0 0,11 -11,0 z M 198,99 l 11,0 0,11 -11,0 z M 220,99 l 11,0 0,11 -11,0 z M 11,110 l 11,0 0,11 -11,0 z M 55,110 l 11,0 0,11 -11,0 z M 88,110 l 11,0 0,11 -11,0 z M 99,110 l 11,0 0,11 -11,0 z M 121,110 l 11,0 0,11 -11,0 z M 154,110 l 11,0 0,11 -11,0 z M 165,110 l 11,0 0,11 -11,0 z M 176,110 l 11,0 0,11 -11,0 z M 187,110 l 11,0 0,11 -11,0 z M 198,110 l 11,0 0,11 -11,0 z M 209,110 l 11,0 0,11 -11,0 z M 220,110 l 11,0 0,11 -11,0 z M 231,110 l 11,0 0,11 -11,0 z M 11,121 l 11,0 0,11 -11,0 z M 55,121 l 11,0 0,11 -11,0 z M 77,121 l 11,0 0,11 -11,0 z M 110,121 l 11,0 0,11 -11,0 z M 132,121 l 11,0 0,11 -11,0 z M 143,121 l 11,0 0,11 -11,0 z M 154,121 l 11,0 0,11 -11,0 z M 165,121 l 11,0 0,11 -11,0 z M 176,121 l 11,0 0,11 -11,0 z M 209,121 l 11,0 0,11 -11,0 z M 220,121 l 11,0 0,11 -11,0 z M 11,132 l 11,0 0,11 -11,0 z M 33,132 l 11,0 0,11 -11,0 z M 44,132 l 11,0 0,11 -11,0 z M 99,132 l 11,0 0,11 -11,0 z M 110,132 l 11,0 0,11 -11,0 z M 187,132 l 11,0 0,11 -11,0 z M 198,132 l 11,0 0,11 -11,0 z M 209,132 l 11,0 0,11 -11,0 z M 11,143 l 11,0 0,11 -11,0 z M 33,143 l 11,0 0,11 -11,0 z M 44,143 l 11,0 0,11 -11,0 z M 66,143 l 11,0 0,11 -11,0 z M 77,143 l 11,0 0,11 -11,0 z M 99,143 l 11,0 0,11 -11,0 z M 110,143 l 11,0 0,11 -11,0 z M 121,143 l 11,0 0,11 -11,0 z M 132,143 l 11,0 0,11 -11,0 z M 154,143 l 11,0 0,11 -11,0 z M 165,143 l 11,0 0,11 -11,0 z M 187,143 l 11,0 0,11 -11,0 z M 198,143 l 11,0 0,11 -11,0 z M 231,143 l 11,0 0,11 -11,0 z M 99,154 l 11,0 0,11 -11,0 z M 176,154 l 11,0 0,11 -11,0 z M 187,154 l 11,0 0,11 -11,0 z M 198,154 l 11,0 0,11 -11,0 z M 209,154 l 11,0 0,11 -11,0 z M 231,154 l 11,0 0,11 -11,0 z M 11,165 l 11,0 0,11 -11,0 z M 22,165 l 11,0 0,11 -11,0 z M 33,165 l 11,0 0,11 -11,0 z M 44,165 l 11,0 0,11 -11,0 z M 55,165 l 11,0 0,11 -11,0 z M 66,165 l 11,0 0,11 -11,0 z M 77,165 l 11,0 0,11 -11,0 z M 99,165 l 11,0 0,11 -11,0 z M 143,165 l 11,0 0,11 -11,0 z M 154,165 l 11,0 0,11 -11,0 z M 165,165 l 11,0 0,11 -11,0 z M 176,165 l 11,0 0,11 -11,0 z M 209,165 l 11,0 0,11 -11,0 z M 220,165 l 11,0 0,11 -11,0 z M 11,176 l 11,0 0,11 -11,0 z M 77,176 l 11,0 0,11 -11,0 z M 121,176 l 11,0 0,11 -11,0 z M 154,176 l 11,0 0,11 -11,0 z M 176,176 l 11,0 0,11 -11,0 z M 187,176 l 11,0 0,11 -11,0 z M 198,176 l 11,0 0,11 -11,0 z M 209,176 l 11,0 0,11 -11,0 z M 11,187 l 11,0 0,11 -11,0 z M 33,187 l 11,0 0,11 -11,0 z M 44,187 l 11,0 0,11 -11,0 z M 55,187 l 11,0 0,11 -11,0 z M 77,187 l 11,0 0,11 -11,0 z M 99,187 l 11,0 0,11 -11,0 z M 143,187 l 11,0 0,11 -11,0 z M 154,187 l 11,0 0,11 -11,0 z M 165,187 l 11,0 0,11 -11,0 z M 176,187 l 11,0 0,11 -11,0 z M 187,187 l 11,0 0,11 -11,0 z M 198,187 l 11,0 0,11 -11,0 z M 11,198 l 11,0 0,11 -11,0 z M 33,198 l 11,0 0,11 -11,0 z M 44,198 l 11,0 0,11 -11,0 z M 55,198 l 11,0 0,11 -11,0 z M 77,198 l 11,0 0,11 -11,0 z M 99,198 l 11,0 0,11 -11,0 z M 121,198 l 11,0 0,11 -11,0 z M 132,198 l 11,0 0,11 -11,0 z M 187,198 l 11,0 0,11 -11,0 z M 209,198 l 11,0 0,11 -11,0 z M 220,198 l 11,0 0,11 -11,0 z M 11,209 l 11,0 0,11 -11,0 z M 33,209 l 11,0 0,11 -11,0 z M 44,209 l 11,0 0,11 -11,0 z M 55,209 l 11,0 0,11 -11,0 z M 77,209 l 11,0 0,11 -11,0 z M 99,209 l 11,0 0,11 -11,0 z M 121,209 l 11,0 0,11 -11,0 z M 132,209 l 11,0 0,11 -11,0 z M 143,209 l 11,0 0,11 -11,0 z M 154,209 l 11,0 0,11 -11,0 z M 165,209 l 11,0 0,11 -11,0 z M 176,209 l 11,0 0,11 -11,0 z M 209,209 l 11,0 0,11 -11,0 z M 11,220 l 11,0 0,11 -11,0 z M 77,220 l 11,0 0,11 -11,0 z M 99,220 l 11,0 0,11 -11,0 z M 121,220 l 11,0 0,11 -11,0 z M 143,220 l 11,0 0,11 -11,0 z M 154,220 l 11,0 0,11 -11,0 z M 187,220 l 11,0 0,11 -11,0 z M 198,220 l 11,0 0,11 -11,0 z M 209,220 l 11,0 0,11 -11,0 z M 11,231 l 11,0 0,11 -11,0 z M 22,231 l 11,0 0,11 -11,0 z M 33,231 l 11,0 0,11 -11,0 z M 44,231 l 11,0 0,11 -11,0 z M 55,231 l 11,0 0,11 -11,0 z M 66,231 l 11,0 0,11 -11,0 z M 77,231 l 11,0 0,11 -11,0 z M 99,231 l 11,0 0,11 -11,0 z M 132,231 l 11,0 0,11 -11,0 z M 143,231 l 11,0 0,11 -11,0 z M 154,231 l 11,0 0,11 -11,0 z M 165,231 l 11,0 0,11 -11,0 z M 176,231 l 11,0 0,11 -11,0 z M 198,231 l 11,0 0,11 -11,0 z M 220,231 l 11,0 0,11 -11,0 z " />
	</g>
</svg>
