<?xml version="1.0" standalone="no"?><!DOCTYPE svg PUBLIC "-//W3C//DTD SVG 1.1//EN" "http://www.w3.org/Graphics/SVG/1.1/DTD/svg11.dtd"><svg t="1657997672000" class="icon" viewBox="0 0 1024 1024" version="1.1" xmlns="http://www.w3.org/2000/svg" p-id="7008" xmlns:xlink="http://www.w3.org/1999/xlink" width="100" height="100"><defs><style type="text/css">@font-face { font-family: feedback-iconfont; src: url("//at.alicdn.com/t/font_1031158_u69w8yhxdu.woff2?t=1630033759944") format("woff2"), url("//at.alicdn.com/t/font_1031158_u69w8yhxdu.woff?t=1630033759944") format("woff"), url("//at.alicdn.com/t/font_1031158_u69w8yhxdu.ttf?t=1630033759944") format("truetype"); }
</style></defs><path d="M504.84089681 815.28564478c-176.06919439 0-319.29193516-143.24307915-319.29193518-319.31227355 0-176.04885604 143.24307915-319.29193516 319.29193518-319.29193517s319.29193516 143.24307915 319.29193514 319.29193517c0.02033837 176.08953275-143.22274079 319.31227355-319.29193514 319.31227355z m0-590.52432243c-149.54797118 0-271.23238725 121.66407772-271.23238725 271.21204888 0 149.56830955 121.66407772 271.23238725 271.23238725 271.23238723s271.23238725-121.66407772 271.23238723-271.23238723c0-149.52763279-121.66407772-271.21204889-271.23238723-271.21204888z" fill="#bfbfbf" p-id="7009"></path><path d="M815.81444217 849.18969319c-6.14218515 0-12.30470862-2.33891155-17.00287012-7.03707304l-101.93586718-101.93586717c-9.39632297-9.39632297-9.39632297-24.60941725 0-33.98540188 9.39632297-9.39632297 24.60941725-9.39632297 33.98540184 0l101.9358672 101.93586719c9.39632297 9.39632297 9.39632297 24.60941725 0 33.98540186-4.67782314 4.69816148-10.82000825 7.03707303-16.98253174 7.03707304z" fill="#bfbfbf" p-id="7010"></path></svg>